<svg width="89" height="88" viewBox="0 0 89 88" fill="none" xmlns="http://www.w3.org/2000/svg">
<path d="M77.875 45.375C76.7685 45.375 75.7074 44.9404 74.925 44.1668C74.1427 43.3932 73.7031 42.344 73.7031 41.25H76.4844C76.4844 41.5219 76.5659 41.7878 76.7187 42.0139C76.8715 42.24 77.0887 42.4163 77.3428 42.5203C77.5969 42.6244 77.8765 42.6516 78.1463 42.5986C78.4161 42.5455 78.6638 42.4146 78.8583 42.2223C79.0528 42.03 79.1852 41.785 79.2389 41.5182C79.2926 41.2515 79.265 40.9751 79.1598 40.7238C79.0545 40.4726 78.8763 40.2578 78.6476 40.1067C78.4189 39.9556 78.15 39.875 77.875 39.875C77.5062 39.875 77.1525 39.7301 76.8917 39.4723C76.6309 39.2144 76.4844 38.8647 76.4844 38.5V20.625H79.2656V37.3601C80.194 37.6841 80.9767 38.3223 81.4751 39.1618C81.9735 40.0013 82.1555 40.988 81.9891 41.9475C81.8226 42.9069 81.3183 43.7773 80.5654 44.4045C79.8125 45.0318 78.8595 45.3755 77.875 45.375Z" fill="#F9BB4B"/>
<path d="M75.0938 50.875L72.3125 55H20.8594L18.0781 50.875H4.17188V56.375L9.73438 68.75H73.7031L84.8281 56.375V50.875H75.0938Z" fill="#4DA19A"/>
<path d="M7.26172 63.25L9.73425 68.75H73.703L78.648 63.25H7.26172Z" fill="#F9BB4B"/>
<path d="M8.34375 55H11.125V57.75H8.34375V55Z" fill="#8EC13F"/>
<path d="M13.9062 55H16.6875V57.75H13.9062V55Z" fill="#8EC13F"/>
<path d="M76.4844 55H79.2656V57.75H76.4844V55Z" fill="#8EC13F"/>
<path d="M18.0781 50.875L20.8594 55H29.2031V44H9.73438V50.875H18.0781Z" fill="#CB2E5C"/>
<path d="M29.2031 44H48.6719V55H29.2031V44Z" fill="#FFD782"/>
<path d="M48.6719 44H68.1406V55H48.6719V44Z" fill="#CB2E5C"/>
<path d="M12.5156 33H31.9844V44H12.5156V33Z" fill="#F9BB4B"/>
<path d="M31.9844 33H51.4531V44H31.9844V33Z" fill="#F98C96"/>
<path d="M31.9844 22H51.4531V33H31.9844V22Z" fill="#4DA19A"/>
<path d="M36.1562 22H38.9375V28.875H36.1562V22Z" fill="#327C73"/>
<path d="M41.7188 22H44.5V28.875H41.7188V22Z" fill="#327C73"/>
<path d="M16.6875 37.125H19.4688V44H16.6875V37.125Z" fill="#D3843D"/>
<path d="M22.25 33H25.0312V39.875H22.25V33Z" fill="#D3843D"/>
<path d="M33.375 44H36.1562V50.875H33.375V44Z" fill="#D3843D"/>
<path d="M38.9375 44H41.7188V50.875H38.9375V44Z" fill="#D3843D"/>
<path d="M44.5 37.125H47.2812V44H44.5V37.125Z" fill="#DB527D"/>
<path d="M38.9375 33H41.7188V39.875H38.9375V33Z" fill="#DB527D"/>
<path d="M22.25 44H25.0312V50.875H22.25V44Z" fill="#B11E48"/>
<path d="M52.8438 44H55.625V50.875H52.8438V44Z" fill="#B11E48"/>
<path d="M58.4062 44H61.1875V50.875H58.4062V44Z" fill="#B11E48"/>
<path d="M57.0156 27.5H62.5781V44H57.0156V27.5Z" fill="#2D75BB"/>
<path d="M62.5781 31.625L76.4844 17.875L79.2656 20.625L62.5781 39.875V31.625Z" fill="#50B4F8"/>
</svg>
