<svg width="48" height="58" viewBox="0 0 48 58" fill="none" xmlns="http://www.w3.org/2000/svg">
<path d="M12.7645 13.0273H17.3218V30.6992H12.7645V13.0273Z" fill="#013906"/>
<path d="M7.29572 13.0273H11.853V30.6992H7.29572V13.0273Z" fill="#013906"/>
<path d="M18.2332 13.0273H22.7905V30.6992H18.2332V13.0273Z" fill="#013906"/>
<path d="M6.38422 13.0273H4.35622C4.05874 13.0271 3.76415 13.1001 3.48945 13.242C3.21475 13.3839 2.96537 13.592 2.75567 13.8542C2.54597 14.1165 2.38011 14.4277 2.26764 14.77C2.15517 15.1123 2.09832 15.4789 2.10036 15.8486V30.6992H6.38422V13.0273Z" fill="#013906"/>
<path d="M28.3504 15.8486C28.3502 15.4776 28.2912 15.1102 28.1766 14.7676C28.0621 14.4249 27.8944 14.1137 27.683 13.8516C27.4716 13.5896 27.2208 13.3819 26.9448 13.2405C26.6688 13.0991 26.373 13.0266 26.0745 13.0273H23.702V30.6992H28.3504V15.8486Z" fill="#013906"/>
<path d="M40.933 20.963C40.8057 20.7868 40.6506 20.6451 40.4774 20.5466C40.3041 20.4481 40.1164 20.395 39.9259 20.3906H38.741V26.3945H44.9276L40.933 20.963Z" fill="#013906"/>
<path d="M31.9962 20.3906H35.6421V26.3945H31.9962V20.3906Z" fill="#013906"/>
<path d="M36.5535 20.3906H37.8296V26.3945H36.5535V20.3906Z" fill="#013906"/>
<path d="M43.7541 30.5859H45.4858V32.9648H43.7541V30.5859Z" fill="#013906"/>
<path d="M38.6727 44.9834C40.1828 44.9834 41.407 43.4619 41.407 41.585C41.407 39.7081 40.1828 38.1865 38.6727 38.1865C37.1625 38.1865 35.9383 39.7081 35.9383 41.585C35.9383 43.4619 37.1625 44.9834 38.6727 44.9834Z" fill="#013906"/>
<path d="M31.9962 41.0078H35.0563C35.167 39.9128 35.5955 38.9057 36.2614 38.1756C36.9273 37.4455 37.7847 37.0426 38.6727 37.0426C39.5607 37.0426 40.4181 37.4455 41.084 38.1756C41.7498 38.9057 42.1784 39.9128 42.2891 41.0078H44.1414C44.3192 41.0082 44.4953 40.9647 44.6595 40.8798C44.8236 40.7949 44.9726 40.6703 45.0976 40.5133C45.2227 40.3563 45.3215 40.1699 45.3881 39.965C45.4547 39.7602 45.488 39.5409 45.4858 39.3199V34.0977H43.7013C43.4754 34.0869 43.2612 33.9702 43.1019 33.7709C42.9425 33.5717 42.8499 33.3048 42.8426 33.024V30.5106C42.8503 30.2315 42.9435 29.9666 43.1031 29.7701C43.2627 29.5735 43.4767 29.4602 43.7013 29.4531H45.4858V27.5273H31.9962V41.0078ZM33.5457 29.4645C33.5457 29.3142 33.5937 29.1702 33.6792 29.0639C33.7647 28.9577 33.8806 28.898 34.0015 28.898C34.1223 28.898 34.2382 28.9577 34.3237 29.0639C34.4092 29.1702 34.4572 29.3142 34.4572 29.4645V30.1781C34.4572 30.3283 34.4092 30.4724 34.3237 30.5786C34.2382 30.6849 34.1223 30.7445 34.0015 30.7445C33.8806 30.7445 33.7647 30.6849 33.6792 30.5786C33.5937 30.4724 33.5457 30.3283 33.5457 30.1781V29.4645ZM33.5457 32.3305C33.5457 32.1802 33.5937 32.0362 33.6792 31.93C33.7647 31.8237 33.8806 31.7641 34.0015 31.7641C34.1223 31.7641 34.2382 31.8237 34.3237 31.93C34.4092 32.0362 34.4572 32.1802 34.4572 32.3305V36.7484C34.4572 36.8987 34.4092 37.0427 34.3237 37.1489C34.2382 37.2552 34.1223 37.3148 34.0015 37.3148C33.8806 37.3148 33.7647 37.2552 33.6792 37.1489C33.5937 37.0427 33.5457 36.8987 33.5457 36.7484V32.3305Z" fill="#013906"/>
<path d="M8.95914 44.9834C10.4693 44.9834 11.6935 43.4619 11.6935 41.585C11.6935 39.7081 10.4693 38.1865 8.95914 38.1865C7.44898 38.1865 6.22476 39.7081 6.22476 41.585C6.22476 43.4619 7.44898 44.9834 8.95914 44.9834Z" fill="#013906"/>
<path d="M8.95913 37.043C9.84807 37.0383 10.7074 37.4396 11.3741 38.1705C12.0407 38.9014 12.4682 39.911 12.5754 41.0078H31.0848V35.7969H2.1004V41.0078H5.34282C5.45003 39.911 5.87753 38.9014 6.54417 38.1705C7.21081 37.4396 8.07018 37.0383 8.95913 37.043Z" fill="#013906"/>
<path d="M2.1004 31.832H31.0848V34.6641H2.1004V31.832Z" fill="#013906"/>
</svg>
