<svg width="58" height="58" viewBox="0 0 58 58" fill="none" xmlns="http://www.w3.org/2000/svg">
<path d="M15.293 13.0273H20.957V30.6992H15.293V13.0273Z" fill="white"/>
<path d="M8.49609 13.0273H14.1602V30.6992H8.49609V13.0273Z" fill="white"/>
<path d="M22.0898 13.0273H27.7539V30.6992H22.0898V13.0273Z" fill="white"/>
<path d="M7.36335 13.0273H4.84284C4.47311 13.0271 4.10698 13.1001 3.76557 13.242C3.42415 13.3839 3.1142 13.592 2.85358 13.8542C2.59295 14.1165 2.38681 14.4277 2.24703 14.77C2.10724 15.1123 2.03659 15.4789 2.03913 15.8486V30.6992H7.36335V13.0273Z" fill="white"/>
<path d="M34.6641 15.8486C34.6638 15.4776 34.5904 15.1102 34.4481 14.7676C34.3058 14.4249 34.0973 14.1137 33.8346 13.8516C33.5719 13.5896 33.2601 13.3819 32.917 13.2405C32.574 13.0991 32.2065 13.0266 31.8354 13.0273H28.8867V30.6992H34.6641V15.8486Z" fill="white"/>
<path d="M50.3024 20.963C50.1442 20.7868 49.9515 20.6451 49.7361 20.5466C49.5208 20.4481 49.2875 20.395 49.0508 20.3906H47.5781V26.3945H55.2671L50.3024 20.963Z" fill="white"/>
<path d="M39.1953 20.3906H43.7266V26.3945H39.1953V20.3906Z" fill="white"/>
<path d="M44.8594 20.3906H46.4453V26.3945H44.8594V20.3906Z" fill="white"/>
<path d="M53.8086 30.5859H55.9609V32.9648H53.8086V30.5859Z" fill="white"/>
<path d="M47.4932 44.9834C49.3701 44.9834 50.8916 43.4619 50.8916 41.585C50.8916 39.7081 49.3701 38.1865 47.4932 38.1865C45.6163 38.1865 44.0947 39.7081 44.0947 41.585C44.0947 43.4619 45.6163 44.9834 47.4932 44.9834Z" fill="white"/>
<path d="M39.1953 41.0078H42.9985C43.1361 39.9128 43.6687 38.9057 44.4963 38.1756C45.3239 37.4455 46.3895 37.0426 47.4932 37.0426C48.5968 37.0426 49.6624 37.4455 50.49 38.1756C51.3176 38.9057 51.8502 39.9128 51.9878 41.0078H54.29C54.511 41.0082 54.7299 40.9647 54.9339 40.8798C55.1379 40.7949 55.323 40.6703 55.4785 40.5133C55.6339 40.3563 55.7567 40.1699 55.8395 39.965C55.9223 39.7602 55.9636 39.5409 55.9609 39.3199V34.0977H53.743C53.4623 34.0869 53.1961 33.9702 52.998 33.7709C52.8 33.5717 52.6848 33.3048 52.6758 33.024V30.5106C52.6854 30.2315 52.8012 29.9666 52.9995 29.7701C53.1979 29.5735 53.4638 29.4602 53.743 29.4531H55.9609V27.5273H39.1953V41.0078ZM41.1211 29.4645C41.1211 29.3142 41.1808 29.1702 41.287 29.0639C41.3932 28.9577 41.5373 28.898 41.6875 28.898C41.8377 28.898 41.9818 28.9577 42.088 29.0639C42.1942 29.1702 42.2539 29.3142 42.2539 29.4645V30.1781C42.2539 30.3283 42.1942 30.4724 42.088 30.5786C41.9818 30.6849 41.8377 30.7445 41.6875 30.7445C41.5373 30.7445 41.3932 30.6849 41.287 30.5786C41.1808 30.4724 41.1211 30.3283 41.1211 30.1781V29.4645ZM41.1211 32.3305C41.1211 32.1802 41.1808 32.0362 41.287 31.93C41.3932 31.8237 41.5373 31.7641 41.6875 31.7641C41.8377 31.7641 41.9818 31.8237 42.088 31.93C42.1942 32.0362 42.2539 32.1802 42.2539 32.3305V36.7484C42.2539 36.8987 42.1942 37.0427 42.088 37.1489C41.9818 37.2552 41.8377 37.3148 41.6875 37.3148C41.5373 37.3148 41.3932 37.2552 41.287 37.1489C41.1808 37.0427 41.1211 36.8987 41.1211 36.7484V32.3305Z" fill="white"/>
<path d="M10.5635 44.9834C12.4404 44.9834 13.9619 43.4619 13.9619 41.585C13.9619 39.7081 12.4404 38.1865 10.5635 38.1865C8.68657 38.1865 7.16504 39.7081 7.16504 41.585C7.16504 43.4619 8.68657 44.9834 10.5635 44.9834Z" fill="white"/>
<path d="M10.5635 37.043C11.6683 37.0383 12.7364 37.4396 13.5649 38.1705C14.3935 38.9014 14.9248 39.911 15.058 41.0078H38.0625V35.7969H2.03906V41.0078H6.06893C6.20217 39.911 6.73349 38.9014 7.56203 38.1705C8.39057 37.4396 9.45864 37.0383 10.5635 37.043Z" fill="white"/>
<path d="M2.03906 31.832H38.0625V34.6641H2.03906V31.832Z" fill="white"/>
</svg>
