<svg width="94" height="94" viewBox="0 0 94 94" fill="none" xmlns="http://www.w3.org/2000/svg">
<path d="M47 0L69.8778 11.7739L92.8513 23.4521L69.8778 35.2261L47 47L24.1222 35.2261L1.14868 23.4521L24.1222 11.7739L47 0Z" fill="#D9AC80"/>
<path d="M75.6212 42.9796V32.3544L64.1345 38.1935V48.8187L70.4522 41.0652L75.6212 42.9796Z" fill="#D7BAA4"/>
<path d="M47 47V94L92.8513 70.5479V23.4521L75.6212 32.3544L75.2383 32.5458V42.8839L70.4521 41.0652L64.1344 48.8187V38.1935L47 47Z" fill="#A67E4F"/>
<path d="M47 94V47L24.1222 35.2261L1.14868 23.4521V70.5479L47 94Z" fill="#926E43"/>
<path d="M18.3788 14.6456L64.1345 38.1935L75.2383 32.5458L75.6212 32.3544L29.8656 8.80652L24.1222 11.7739L18.3788 14.6456Z" fill="#F2D3BA"/>
</svg>
