<svg width="58" height="58" viewBox="0 0 58 58" fill="none" xmlns="http://www.w3.org/2000/svg">
<path d="M31.5701 30.3683C29.8226 30.3683 28.9333 32.0085 28.9333 33.6489C28.9333 35.3198 29.8685 36.9295 31.5855 36.9295C33.333 36.9295 34.2068 35.2432 34.2068 33.6183C34.2068 31.932 33.2564 30.3683 31.5701 30.3683Z" fill="white"/>
<path d="M45.165 21.3733C44.5647 21.3733 43.9744 21.4155 43.396 21.4952C40.8062 15.3056 34.6932 10.9567 27.5639 10.9567C19.1881 10.9567 12.2156 16.9596 10.7106 24.8974C4.76268 25.0904 0 29.9722 0 35.967C0 42.0843 4.959 47.0433 11.0763 47.0433H45.165C52.2536 47.0433 58 41.2969 58 34.2083C58 27.1197 52.2536 21.3733 45.165 21.3733ZM21.4676 39.1675C18.4476 39.1675 16.3168 36.3316 16.3168 33.5414C16.3168 30.9047 18.2484 28.13 21.5596 28.13C23.4911 28.13 24.9935 29.0958 25.6832 30.5062L23.7517 31.8552C23.3072 30.7055 22.2953 30.3683 21.4982 30.3683C19.72 30.3683 18.8768 32.0545 18.8768 33.6334C18.8768 35.3657 19.9193 36.9294 21.5289 36.9294C22.3567 36.9294 23.3532 36.5154 23.7517 35.427L25.8212 36.6381C25.1774 38.2478 23.1846 39.1675 21.4676 39.1675ZM31.5546 39.1675C28.4579 39.1675 26.3731 36.4235 26.3731 33.6181C26.3731 30.7361 28.5805 28.13 31.6005 28.13C34.7124 28.13 36.7667 30.9047 36.7667 33.6641C36.7667 36.5308 34.5745 39.1675 31.5546 39.1675ZM41.7117 41.127H37.3257C37.3257 39.6516 37.5021 38.978 38.7209 38.4007C39.3864 38.0881 39.9637 37.8075 39.9637 37.2221C39.9637 36.8372 39.7152 36.7169 39.4425 36.7169C39.0255 36.7169 38.5684 36.9975 38.2637 37.2942L37.3256 36.2758C37.7505 35.7947 38.6166 35.3698 39.659 35.3698C40.958 35.3698 41.7037 36.0273 41.7037 37.1979C41.7037 38.0799 41.2868 38.4809 40.5732 38.8978C40.1161 39.1624 39.5949 39.419 39.5949 39.7637H41.7117V41.127Z" fill="white"/>
</svg>
