<svg width="62" height="37" viewBox="0 0 62 37" fill="none" xmlns="http://www.w3.org/2000/svg">
<g clip-path="url(#clip0_2201_483)">
<path d="M35.016 32.8301C32.105 32.8301 30.0549 32.5742 29.8212 32.5439C29.0053 32.437 28.3629 31.7947 28.256 30.9782C28.1675 30.3013 26.1785 14.3042 34.0709 6.41134C41.941 -1.45833 58.3123 0.100279 59.0053 0.170286C59.8634 0.257322 60.5422 0.93611 60.6292 1.79417C60.6997 2.48762 62.2583 18.8589 54.3881 26.7286C49.2142 31.903 40.5565 32.8301 35.016 32.8301Z" fill="#A7D533"/>
<path d="M60.6292 1.79463C60.5856 1.3656 60.3945 0.981506 60.1069 0.693436L28.773 32.0274C29.0488 32.3032 29.4135 32.4905 29.8212 32.5439C30.0549 32.5742 32.105 32.8301 35.016 32.8301C40.5565 32.8301 49.2142 31.903 54.3886 26.7286C62.2583 18.8589 60.6996 2.48761 60.6292 1.79463Z" fill="#49BA6E"/>
<path d="M59.2064 18.0486C59.5654 16.8424 59.8473 15.6201 60.0673 14.4158H48.9522L60.6992 2.66927C60.6671 2.18347 60.6377 1.87695 60.6292 1.79465C60.5426 0.936111 59.8639 0.257324 59.0053 0.170761C58.923 0.162247 58.6165 0.132919 58.1307 0.100754L41.1776 17.0539V2.1111C39.9179 2.56709 38.6942 3.11911 37.5448 3.78276V20.6867L28.9291 29.3023C28.2196 30.0114 28.2196 31.1618 28.9291 31.8708C29.2834 32.2256 29.7484 32.403 30.2134 32.403C30.6779 32.403 31.1429 32.2256 31.4972 31.8708L45.3198 18.0486H59.2064Z" fill="#148253"/>
<path d="M59.2064 18.0486C59.5654 16.8424 59.8473 15.6201 60.0673 14.4158H48.9522L60.6992 2.66925C60.6671 2.18346 60.6377 1.87694 60.6292 1.79463C60.5857 1.3656 60.3946 0.981506 60.107 0.693436L28.9291 31.8713C29.2839 32.2256 29.7484 32.403 30.2134 32.403C30.6779 32.403 31.1429 32.2256 31.4972 31.8708L45.3198 18.0486H59.2064Z" fill="#148253"/>
<path d="M27.1161 36.4629C21.5756 36.4629 12.9183 35.5358 7.74342 30.3609C-0.126253 22.4913 1.43236 6.11996 1.50236 5.42698C1.5894 4.56844 2.26819 3.89013 3.12672 3.80309C3.8197 3.73261 20.191 2.174 28.0607 10.0437C35.9535 17.9365 33.9645 33.9337 33.876 34.6106C33.7691 35.427 33.1268 36.0694 32.3103 36.1763C32.0771 36.207 30.0261 36.4629 27.1161 36.4629Z" fill="#C5ED4E"/>
<path d="M32.3103 36.1763C32.7185 36.1228 33.0832 35.9355 33.3595 35.6598L2.02553 4.32581C1.73746 4.6134 1.54588 4.99797 1.50236 5.427C1.43236 6.11998 -0.126254 22.4913 7.74342 30.3614C12.9183 35.5358 21.5756 36.463 27.1161 36.463C30.0261 36.463 32.0771 36.207 32.3103 36.1763Z" fill="#A7D533"/>
<path d="M19.3807 19.1125V5.22595C18.1745 4.86693 16.9522 4.58501 15.7479 4.36458V15.4797L4.00131 3.73309C3.51552 3.76526 3.209 3.79459 3.12669 3.8031C2.26816 3.89014 1.58937 4.56845 1.50233 5.42699C1.49429 5.50929 1.46497 5.81581 1.4328 6.30161L18.3859 23.2552H3.44315C3.89914 24.5144 4.45116 25.7381 5.11481 26.8875H22.0183L31.4044 36.2737C31.9096 36.2274 32.227 36.1872 32.3103 36.1763C33.1267 36.0699 33.7691 35.4275 33.876 34.6111C33.8869 34.5273 33.9266 34.2104 33.9734 33.7052L19.3807 19.1125Z" fill="#49BA6E"/>
<path d="M2.0255 4.3258C1.73743 4.6134 1.54585 4.99796 1.50233 5.42699C1.49429 5.5093 1.46497 5.81582 1.4328 6.30161L18.3859 23.2552H3.44315C3.89914 24.5144 4.45116 25.7381 5.11481 26.8876H22.0183L31.4044 36.2737C31.9096 36.2274 32.227 36.1872 32.3103 36.1763C32.7185 36.1233 33.0832 35.9355 33.3595 35.6598L2.0255 4.3258Z" fill="#49BA6E"/>
</g>
<defs>
<clipPath id="clip0_2201_483">
<rect width="62" height="37" fill="white"/>
</clipPath>
</defs>
</svg>
