<svg width="67" height="46" viewBox="0 0 67 46" fill="none" xmlns="http://www.w3.org/2000/svg"><g clip-path="url(#clip0_2201_681)"><path d="M17.2957 22.5222C21.4171 24.7096 23.351 29.6009 21.971 34.0978C21.7175 34.9052 21.4922 35.7408 21.3138 36.5763C20.5815 40.3316 21.5673 45.0444 25.6981 45.88C27.7823 46.3212 29.857 45.5138 31.3216 43.9836C35.6871 39.2425 34.354 24.9631 34.3164 21.3862C34.3164 19.8184 34.2789 18.213 33.6593 16.7485C32.2698 13.4626 28.3643 12.1483 24.9001 11.2376C19.2109 9.16282 15.6246 11.7821 14.4229 13.7161C13.2212 15.6501 12.3481 19.9498 17.2957 22.5222Z" fill="white"/><path d="M13.3152 8.31792C14.9484 8.31792 16.2725 6.45589 16.2725 4.15896C16.2725 1.86203 14.9484 0 13.3152 0C11.6819 0 10.3579 1.86203 10.3579 4.15896C10.3579 6.45589 11.6819 8.31792 13.3152 8.31792Z" fill="white"/><path d="M20.1496 7.3322C21.1192 7.3322 21.9052 6.22255 21.9052 4.85372C21.9052 3.4849 21.1192 2.37524 20.1496 2.37524C19.18 2.37524 18.394 3.4849 18.394 4.85372C18.394 6.22255 19.18 7.3322 20.1496 7.3322Z" fill="white"/><path d="M25.6232 8.57143C26.4891 8.57143 27.1911 7.59207 27.1911 6.38398C27.1911 5.17589 26.4891 4.19653 25.6232 4.19653C24.7574 4.19653 24.0554 5.17589 24.0554 6.38398C24.0554 7.59207 24.7574 8.57143 25.6232 8.57143Z" fill="white"/><path d="M30.6175 9.60414C31.3849 9.60414 32.0069 8.73827 32.0069 7.67017C32.0069 6.60207 31.3849 5.73621 30.6175 5.73621C29.8501 5.73621 29.228 6.60207 29.228 7.67017C29.228 8.73827 29.8501 9.60414 30.6175 9.60414Z" fill="white"/><path d="M33.1658 10.0037C32.9747 10.9331 33.3632 11.7983 34.0336 11.9361C34.704 12.074 35.4023 11.4323 35.5934 10.5029C35.7845 9.57349 35.396 8.70833 34.7256 8.57049C34.0552 8.43264 33.3569 9.07433 33.1658 10.0037Z" fill="white"/></g><path d="M47.3237 37.4478C47.2407 38.5952 46.8159 39.4985 46.0493 40.1577C45.2876 40.8169 44.2817 41.1465 43.0317 41.1465C41.6646 41.1465 40.5879 40.6875 39.8018 39.7695C39.0205 38.8467 38.6299 37.582 38.6299 35.9756V35.3237C38.6299 34.2983 38.8105 33.395 39.1719 32.6138C39.5332 31.8325 40.0483 31.2344 40.7173 30.8193C41.3911 30.3994 42.1724 30.1895 43.061 30.1895C44.2915 30.1895 45.2827 30.519 46.0347 31.1782C46.7866 31.8374 47.2212 32.7627 47.3384 33.9541H45.1411C45.0874 33.2656 44.8945 32.7676 44.5625 32.46C44.2354 32.1475 43.7349 31.9912 43.061 31.9912C42.3286 31.9912 41.7793 32.2549 41.4131 32.7822C41.0518 33.3047 40.8662 34.1177 40.8564 35.2212V36.0269C40.8564 37.1792 41.0298 38.0215 41.3765 38.5537C41.728 39.0859 42.2798 39.3521 43.0317 39.3521C43.7104 39.3521 44.2158 39.1982 44.5479 38.8906C44.8848 38.5781 45.0776 38.0972 45.1265 37.4478H47.3237ZM59.0264 35.9097C59.0264 36.9595 58.8408 37.8799 58.4697 38.6709C58.0986 39.4619 57.5664 40.0723 56.873 40.502C56.1846 40.9316 55.3936 41.1465 54.5 41.1465C53.6162 41.1465 52.8276 40.9341 52.1343 40.5093C51.4409 40.0845 50.9038 39.479 50.5229 38.6929C50.1421 37.9019 49.9492 36.9937 49.9443 35.9683V35.4409C49.9443 34.3911 50.1323 33.4683 50.5083 32.6724C50.8892 31.8716 51.4238 31.2588 52.1123 30.834C52.8057 30.4043 53.5967 30.1895 54.4854 30.1895C55.374 30.1895 56.1626 30.4043 56.8511 30.834C57.5444 31.2588 58.0791 31.8716 58.4551 32.6724C58.8359 33.4683 59.0264 34.3887 59.0264 35.4336V35.9097ZM56.7998 35.4263C56.7998 34.3081 56.5996 33.4585 56.1992 32.8774C55.7988 32.2964 55.2275 32.0059 54.4854 32.0059C53.748 32.0059 53.1792 32.2939 52.7788 32.8701C52.3784 33.4414 52.1758 34.2812 52.1709 35.3896V35.9097C52.1709 36.9985 52.3711 37.8433 52.7715 38.4438C53.1719 39.0444 53.748 39.3447 54.5 39.3447C55.2373 39.3447 55.8037 39.0566 56.1992 38.4805C56.5947 37.8994 56.7949 37.0547 56.7998 35.9463V35.4263Z" fill="white"/><path d="M65.2852 40H61.3867V39.2266L63.2266 37.2656C63.4792 36.9896 63.6654 36.7487 63.7852 36.543C63.9076 36.3372 63.9688 36.1419 63.9688 35.957C63.9688 35.7044 63.9049 35.5065 63.7773 35.3633C63.6497 35.2174 63.4674 35.1445 63.2305 35.1445C62.9753 35.1445 62.7734 35.2331 62.625 35.4102C62.4792 35.5846 62.4062 35.8151 62.4062 36.1016H61.2734C61.2734 35.7552 61.3555 35.4388 61.5195 35.1523C61.6862 34.8659 61.9206 34.6419 62.2227 34.4805C62.5247 34.3164 62.8672 34.2344 63.25 34.2344C63.8359 34.2344 64.2904 34.375 64.6133 34.6562C64.9388 34.9375 65.1016 35.3346 65.1016 35.8477C65.1016 36.1289 65.0286 36.4154 64.8828 36.707C64.737 36.9987 64.487 37.3385 64.1328 37.7266L62.8398 39.0898H65.2852V40Z" fill="white"/><defs><clipPath id="clip0_2201_681"><rect width="46" height="46" fill="white"/></clipPath></defs></svg>
