<svg width="48" height="48" viewBox="0 0 48 48" fill="none" xmlns="http://www.w3.org/2000/svg">
<g clip-path="url(#clip0_2201_642)">
<path d="M9.75 29.25C7.68225 29.25 6 30.9323 6 33C6 35.0677 7.68225 36.75 9.75 36.75C11.103 36.75 12.3375 36.0127 13.0043 34.8247C11.0378 33.5077 9.75 31.7122 9.75 29.25Z" fill="white"/>
<path d="M1.49994 23.25C1.49994 22.0072 2.50719 21 3.74994 21H11.3422L11.3527 21.003C13.5899 15.699 17.6887 12.6187 20.4442 11.064L19.3844 8.7315C18.8362 7.5285 17.6279 6.75 16.3049 6.75C15.4394 6.75 14.6887 6.1635 14.4779 5.325L14.1209 3.897C13.6589 2.04375 12.0022 0.75 10.0919 0.75C8.22969 0.75 6.58268 2.004 6.08769 3.79875L0.721436 23.25L1.49994 24H1.63794C1.55394 23.7645 1.49994 23.5147 1.49994 23.25Z" fill="white"/>
<path d="M17.7998 17.8387L16.6996 16.8202C16.2593 17.2957 15.8446 17.7944 15.4658 18.3029L16.6696 19.1977C17.0161 18.7319 17.3971 18.2744 17.7998 17.8387Z" fill="white"/>
<path d="M13.5 29.25C13.5 26.0437 14.2478 23.1427 15.7215 20.6295L14.4278 19.8705C12.8167 22.6177 12 25.773 12 29.25H13.5Z" fill="white"/>
<path d="M5.14014 18.5266L5.54572 17.0568L6.99172 17.4558L6.58614 18.9256L5.14014 18.5266Z" fill="white"/>
<path d="M5.95776 15.549L8.23426 7.29879L9.68026 7.69779L7.40376 15.948L5.95776 15.549Z" fill="white"/>
<path d="M44.8763 33.75H42.1237C41.6415 33.75 41.25 33.3585 41.25 32.8763C41.25 32.4472 41.5567 32.0835 41.9805 32.0138L43.428 31.773C44.7735 31.548 45.7507 30.3953 45.7507 29.031C45.75 27.4972 44.5028 26.25 42.9697 26.25H31.779C31.611 25.554 31.5 24.8062 31.5 24C31.5 19.5637 32.3775 16.2615 33.201 14.1278C33.6023 14.2013 34.0088 14.25 34.4167 14.25H38.4772L40.7475 12.7365C41.8717 12.6128 42.75 11.6573 42.75 10.5C42.75 9.3855 41.9355 8.45775 40.8713 8.28075L37.917 4.833C36.9188 3.66825 35.4653 3 33.93 3H31.9012L31.2915 2.08575C30.7343 1.2495 29.802 0.75 28.7985 0.75C28.7977 0.75 28.7978 0.75 28.797 0.75H28.5C26.8455 0.75 25.5 2.09625 25.5 3.75C25.5 4.4745 25.7692 5.13225 26.1997 5.65125C25.062 6.10275 24.0772 6.915 23.433 7.98825C23.0063 8.69925 22.3793 9.26175 21.6188 9.61575C18.9067 10.8802 13.6283 14.028 10.836 20.25H3.75C2.0955 20.25 0.75 21.5955 0.75 23.25C0.75 24.9045 2.0955 26.25 3.75 26.25H5.25C5.664 26.25 6 26.586 6 27C6 27.414 5.664 27.75 5.25 27.75H3C1.7595 27.75 0.75 28.7595 0.75 30V37.5C0.75 42.9675 10.9628 47.25 24 47.25C37.0373 47.25 47.25 42.9675 47.25 37.5V36.1237C47.25 34.815 46.185 33.75 44.8763 33.75ZM22.2518 10.9755C23.2845 10.4948 24.1373 9.72825 24.7185 8.76C25.4625 7.52025 26.8238 6.75 28.269 6.75H28.4963H28.5V5.25H28.4978C27.672 5.24925 27 4.57575 27 3.75C27 2.9235 27.6728 2.25075 28.5 2.25H28.797H28.7985C29.2995 2.25 29.7645 2.49975 30.0435 2.9175L31.0988 4.5H33.93C35.0265 4.5 36.0645 4.977 36.7777 5.8095L40.155 9.75H40.5C40.914 9.75 41.25 10.0868 41.25 10.5C41.25 10.9132 40.914 11.25 40.5 11.25H40.2728L38.0228 12.75H34.416C33.6053 12.75 32.793 12.5588 32.0677 12.1957L30.3345 11.3295L29.6632 12.6713L31.3965 13.5375C31.5142 13.596 31.638 13.641 31.7588 13.6927C30.8993 15.9585 30 19.4145 30 24C30 26.5245 30.8715 28.6005 31.7362 30.0413C31.1347 30.5903 30.75 31.3732 30.75 32.25V33.975L26.9933 28.8105C26.5845 28.248 26.0842 27.7703 25.5255 27.3802C25.5158 27.2288 25.5 27.0772 25.5 26.9235V21.9315C25.5 20.0798 26.2208 18.339 27.5303 17.0295L26.4697 15.969C24.8775 17.5627 24 19.68 24 21.9323V26.601C23.352 26.3752 22.6665 26.25 21.966 26.25C18.5385 26.25 15.75 29.0385 15.75 32.466V33H17.25V32.466C17.25 29.8657 19.3657 27.75 21.966 27.75C23.4697 27.75 24.8955 28.476 25.7805 29.6925L30.3683 36H32.25V32.25C32.25 31.4228 32.9227 30.75 33.75 30.75C34.5773 30.75 35.25 31.4228 35.25 32.25V36C35.25 36.8273 34.5773 37.5 33.75 37.5C33.7072 37.5 33.6015 37.5037 33.4365 37.5105C28.5893 37.707 16.836 37.6845 12.264 33.2925C11.0775 32.1525 10.5 30.8302 10.5 29.25C10.5 17.7022 18.7185 12.6233 22.2518 10.9755ZM2.25 30C2.25 29.586 2.586 29.25 3 29.25H5.25C6.4905 29.25 7.5 28.2405 7.5 27C7.5 25.7595 6.4905 24.75 5.25 24.75H3.75C2.92275 24.75 2.25 24.0772 2.25 23.25C2.25 22.4228 2.92275 21.75 3.75 21.75H10.2375C9.471 23.9093 9 26.3932 9 29.25C9 31.233 9.7485 32.9557 11.2245 34.374C15.3952 38.3797 24.6368 39.0697 30.498 39.069C31.6485 39.069 32.67 39.0428 33.4965 39.0098C33.6278 39.0037 33.714 39 33.75 39C35.4045 39 36.75 37.6545 36.75 36V32.25C36.75 30.5955 35.4045 29.25 33.75 29.25C33.5122 29.25 33.2842 29.2845 33.0622 29.337C32.7848 28.8818 32.5088 28.3455 32.2643 27.75H42.9697C43.6755 27.75 44.25 28.3245 44.25 29.0303C44.25 29.6588 43.8 30.1897 43.1805 30.2932L41.7337 30.534C40.584 30.7253 39.75 31.71 39.75 32.8763C39.75 34.185 40.815 35.25 42.1237 35.25H44.8763C45.1507 35.25 45.3855 35.385 45.546 35.583C44.0565 39.6292 34.7677 42.75 24 42.75C12.21 42.75 2.25 38.9722 2.25 34.5V30ZM24 45.75C12.717 45.75 3.11625 42.2895 2.3115 38.0723C5.64375 41.7218 13.986 44.25 24 44.25C33.9855 44.25 42.336 41.781 45.681 38.1097C44.826 42.3097 35.2492 45.75 24 45.75Z" fill="white"/>
</g>
<defs>
<clipPath id="clip0_2201_642">
<rect width="48" height="48" fill="white"/>
</clipPath>
</defs>
</svg>
