<svg width="29" height="29" viewBox="0 0 29 29" fill="none" xmlns="http://www.w3.org/2000/svg">
<path d="M14.5 0C9.16989 0 4.83331 4.33658 4.83331 9.66669C4.83331 11.2668 5.23337 12.8533 5.99388 14.2605L13.9714 28.6885C14.0776 28.8808 14.2799 29 14.5 29C14.72 29 14.9224 28.8808 15.0286 28.6885L23.0091 14.2557C23.7666 12.8533 24.1667 11.2667 24.1667 9.66663C24.1667 4.33658 19.8301 0 14.5 0ZM14.5 14.5C11.8349 14.5 9.66668 12.3317 9.66668 9.66669C9.66668 7.00163 11.8349 4.83337 14.5 4.83337C17.1651 4.83337 19.3333 7.00163 19.3333 9.66669C19.3333 12.3317 17.1651 14.5 14.5 14.5Z" fill="#FFBB00"/>
</svg>
