<svg width="28" height="28" viewBox="0 0 28 28" fill="none" xmlns="http://www.w3.org/2000/svg">
<g clip-path="url(#clip0_2201_313)">
<path d="M27.877 22.3906C27.7661 22.2495 27.597 22.1666 27.4173 22.1666H23.145L22.2116 19.8333H23.9173C24.2393 19.8333 24.5006 19.5719 24.5006 19.2499V13.4166C24.5006 13.0946 24.2393 12.8333 23.9173 12.8333H23.3339V5.3445L24.4703 1.93435C24.4796 1.9087 24.4773 1.88185 24.4819 1.8562C24.4878 1.82585 24.4936 1.79785 24.4948 1.76635C24.4959 1.71385 24.4878 1.66485 24.4761 1.6147C24.4726 1.59835 24.4761 1.58205 24.4703 1.5657C24.4691 1.56105 24.4644 1.55755 24.4621 1.5517C24.4423 1.4957 24.4108 1.44435 24.3735 1.39655C24.3653 1.38491 24.3595 1.37091 24.3501 1.36041C24.314 1.31955 24.2673 1.28805 24.2183 1.25776C24.2031 1.24841 24.1926 1.23441 24.1763 1.22741L21.8453 0.0618516C21.7636 0.021 21.675 0 21.584 0H5.25063C4.92863 0 4.66728 0.261352 4.66728 0.583352V2.9167C4.66728 3.23865 4.92863 3.5 5.25063 3.5H5.94128C6.11743 3.99465 6.50593 4.38315 7.00063 4.55935V7.4072L4.93913 10.5H4.08398C3.76199 10.5 3.50063 10.7614 3.50063 11.0834V14.5834C3.50063 14.9054 3.76199 15.1667 4.08398 15.1667H11.084C11.406 15.1667 11.6673 14.9054 11.6673 14.5834V11.0834C11.6673 10.7614 11.406 10.5 11.084 10.5H10.2276L8.16728 7.40835V4.55935C8.66193 4.3832 9.05043 3.9947 9.22663 3.5H19.834V12.8334H19.2506C18.9286 12.8334 18.6673 13.0947 18.6673 13.4167V16.3334H13.4173C13.0953 16.3334 12.8339 16.5947 12.8339 16.9167V22.1667H10.5006V20.4167C10.5006 20.0947 10.2393 19.8334 9.91728 19.8334H7.00063V19.25C7.00063 18.928 6.73928 18.6666 6.41728 18.6666H2.91728C2.59528 18.6666 2.33393 18.928 2.33393 19.25V22.1666H1.75063C1.48228 22.1666 1.25013 22.3486 1.18478 22.6088L0.0181329 27.2755C-0.0250155 27.4505 0.0134845 27.6349 0.124281 27.776C0.235133 27.9171 0.404281 28 0.58393 28H21.4404C24.5414 28 27.2306 25.8989 27.9831 22.8911C28.0263 22.7161 27.9878 22.5319 27.877 22.3906ZM10.5006 11.6666V14H4.66728V11.6666H10.5006ZM8.82648 10.5H6.34034L7.58399 8.63565L8.82648 10.5ZM5.83399 2.33335V1.16665H21.4463L22.3972 1.64265L20.324 2.3333H5.83399V2.33335ZM22.9956 2.67165L22.1976 5.06565C22.1778 5.12515 22.1673 5.187 22.1673 5.25V12.8334H21.0006V3.33665L22.9956 2.67165ZM19.834 14H23.334V18.6666H21.745L20.9586 16.6996C20.87 16.4791 20.6565 16.3333 20.4173 16.3333H19.8339V14H19.834ZM14.0006 17.5H20.023L20.8093 19.467C20.8093 19.467 20.8093 19.467 20.8093 19.4681L21.8897 22.1666H14.0006V17.5ZM7.00063 21H9.33399V22.1666H7.00063V21ZM3.50063 19.8334H5.83399V22.1667H3.50063V19.8334ZM21.4416 26.8334H1.33178L2.20678 23.3334H26.6181C25.7805 25.4264 23.7481 26.8334 21.4416 26.8334Z" fill="white"/>
<path d="M11.0833 26.25C11.7273 26.25 12.2499 25.7274 12.2499 25.0834C12.2499 24.4394 11.7273 23.9167 11.0833 23.9167C10.4393 23.9167 9.91663 24.4394 9.91663 25.0834C9.91663 25.7274 10.4393 26.25 11.0833 26.25Z" fill="white"/>
<path d="M18.0833 26.25C18.7273 26.25 19.2499 25.7274 19.2499 25.0834C19.2499 24.4394 18.7273 23.9167 18.0833 23.9167C17.4393 23.9167 16.9166 24.4394 16.9166 25.0834C16.9166 25.7274 17.4393 26.25 18.0833 26.25Z" fill="white"/>
</g>
<defs>
<clipPath id="clip0_2201_313">
<rect width="28" height="28" fill="white"/>
</clipPath>
</defs>
</svg>
