<svg width="33" height="33" viewBox="0 0 33 33" fill="none" xmlns="http://www.w3.org/2000/svg">
<g clip-path="url(#clip0_2201_883)">
<path d="M4.89831 0.51709V3.48196H2.96475V7.34913H8.76555V3.48196H6.83193V0.51709H4.89831Z" fill="#023907"/>
<path d="M30.4676 31.9269L32.4657 30.9601L31.6009 29.2305L29.6028 30.1973C28.6624 30.6675 27.5408 30.6675 26.6004 30.1973C25.1191 29.4571 23.3517 29.4571 21.8685 30.1973C20.9281 30.6675 19.8065 30.6675 18.8661 30.1973C17.3848 29.4571 15.6174 29.4571 14.1341 30.1973C13.1937 30.6675 12.0721 30.6675 11.1318 30.1973C9.65046 29.4571 7.88301 29.4571 6.39977 30.1973C5.4594 30.6675 4.33779 30.6675 3.39742 30.1973L1.4638 29.2305L0.598846 30.9601L2.53246 31.9269C4.01474 32.6671 5.78219 32.6671 7.26446 31.9269C8.20483 31.4567 9.32644 31.4567 10.2668 31.9269C11.7491 32.6671 13.5165 32.6671 14.9988 31.9269C15.9392 31.4567 17.0608 31.4567 18.0012 31.9269C18.7423 32.297 19.5543 32.483 20.3671 32.483C21.18 32.483 21.992 32.2971 22.7331 31.9269C23.6735 31.4567 24.7951 31.4567 25.7355 31.9269C27.2179 32.6671 28.9872 32.6671 30.4676 31.9269Z" fill="#023907"/>
<path d="M7.26442 28.0597C8.20479 27.5895 9.3264 27.5895 10.2668 28.0597C11.749 28.7999 13.5165 28.7999 14.9988 28.0597C15.9391 27.5895 17.0607 27.5895 18.0011 28.0597C18.7422 28.4298 19.5543 28.6159 20.3671 28.6159C21.18 28.6159 21.992 28.4299 22.7331 28.0597C23.6735 27.5895 24.7951 27.5895 25.7355 28.0597C27.2177 28.7999 28.9871 28.7999 30.4674 28.0597L32.4655 27.0929L31.6007 25.3633L29.6026 26.3301C29.3883 26.4377 29.1645 26.5198 28.9361 26.5784L33 18.9507H0V26.8257L2.53243 28.0597C4.0147 28.7999 5.78215 28.7999 7.26442 28.0597ZM23.2676 21.851H25.2012V23.7847H23.2676V21.851ZM19.4004 21.851H21.334V23.7847H19.4004V21.851ZM15.5332 21.851H17.4668V23.7847H15.5332V21.851ZM11.666 21.851H13.5996V23.7847H11.666V21.851ZM7.79885 21.851H9.73247V23.7847H7.79885V21.851ZM3.93161 21.851H5.86523V23.7847H3.93161V21.851Z" fill="#023907"/>
<path d="M1.99802 9.28271H9.73242V17.0171H1.99802V9.28271Z" fill="#023907"/>
<path d="M11.6661 13.1499H17.4669V17.0171H11.6661V13.1499Z" fill="#023907"/>
<path d="M19.4004 13.1499H25.2012V17.0171H19.4004V13.1499Z" fill="#023907"/>
<path d="M15.5333 7.34912H21.3341V11.2163H15.5333V7.34912Z" fill="#023907"/>
<path d="M23.2676 7.34912H29.0684V11.2163H23.2676V7.34912Z" fill="#023907"/>
<path d="M27.1348 13.1499H33.0001V17.0171H27.1348V13.1499Z" fill="#023907"/>
</g>
<defs>
<clipPath id="clip0_2201_883">
<rect width="33" height="33" fill="white"/>
</clipPath>
</defs>
</svg>
