<svg width="44" height="44" viewBox="0 0 44 44" fill="none" xmlns="http://www.w3.org/2000/svg"><g clip-path="url(#clip0_2201_657)"><path d="M40.1023 13.026C40.1023 9.68745 37.5688 6.94152 34.3195 6.60425C33.4075 4.14496 31.0474 2.38868 28.27 2.38868C27.0543 2.38868 25.9212 2.73094 24.9508 3.31495C23.847 1.3384 21.7372 0 19.3121 0C16.097 0 13.438 2.35304 12.9446 5.42915C12.6822 5.39709 12.417 5.37494 12.146 5.37494C8.58004 5.37494 5.68864 8.26568 5.68864 11.8323C5.68864 12.007 5.70146 12.1781 5.71503 12.3493C3.90678 13.4937 2.70312 15.5059 2.70312 17.8041C2.70312 19.8356 3.64297 21.6452 5.10962 22.8289C5.10321 22.9452 5.0918 23.0606 5.0918 23.1783C5.0918 26.7443 7.98254 29.6357 11.5491 29.6357C12.618 29.6357 13.6234 29.3719 14.5112 28.9127C15.7412 29.7962 17.5024 30.9014 18.3552 30.6811C18.3552 30.6811 18.6725 35.5954 18.604 36.8433C18.4735 39.2177 17.7612 41.861 17.2599 44.0002H25.0236C25.0236 44.0002 23.8792 39.2313 23.8292 37.6391C23.7793 36.0468 24.3269 33.1147 24.3269 33.1147L27.0201 30.3289C28.0568 31.0376 29.309 31.4405 30.6595 31.4405C33.998 31.4405 36.744 28.9006 37.0812 25.6512C39.5405 24.7393 41.2967 22.3726 41.2967 19.5953C41.2967 17.9553 40.6807 16.4636 39.6738 15.3242C39.9462 14.6096 40.1023 13.8367 40.1023 13.026ZM16.0028 27.8466C16.5204 27.3525 16.9547 26.7749 17.2863 26.1339L18.554 28.79C18.5534 28.79 17.8638 29.0945 16.0028 27.8466ZM20.7432 29.4866C20.0871 29.6057 18.9698 27.5856 18.1769 25.9434C19.0561 26.392 20.0487 26.6501 21.1039 26.6501C21.3749 26.6501 21.6409 26.628 21.9033 26.5952C21.6993 27.9094 21.34 29.3776 20.7432 29.4866ZM23.5305 30.7794C22.013 31.2008 22.9215 28.0576 23.3564 26.238C23.671 26.1211 23.9754 25.9835 24.2649 25.8201C24.4396 27.1464 25.0157 28.3429 25.8693 29.289C25.1298 29.9459 24.2784 30.5719 23.5305 30.7794Z" fill="white"/></g><defs><clipPath id="clip0_2201_657"><rect width="44" height="44" fill="white"/></clipPath></defs></svg>
