<svg width="67" height="67" viewBox="0 0 67 67" fill="none" xmlns="http://www.w3.org/2000/svg">
<path d="M40.4791 51.0875H3.48963C1.53537 51.0875 0 49.4125 0 47.4584V12.4229C0 10.4688 1.53537 8.93341 3.48963 8.93341H36.9896C38.9437 8.93341 40.4793 10.4688 40.4793 12.423V51.0875H40.4791Z" fill="#FFD15C"/>
<path d="M66.0227 28.475L57.0894 19.5416C56.531 18.9833 55.6935 18.5645 54.856 18.5645H40.479V51.0875H63.3706C65.3249 51.0875 66.9999 49.4125 66.9999 47.4584V30.7084C66.9999 29.7313 66.7208 29.0334 66.0227 28.475Z" fill="#F3705A"/>
<path d="M0 44.9459V47.4584C0 49.4125 1.53537 50.948 3.48963 50.948H63.3709C65.325 50.948 67 49.273 67 47.3189V44.8064H0V44.9459Z" fill="#344A5E"/>
<path d="M62.2542 35.5938V31.2666L54.298 23.1709H45.2251V35.5938H62.2542Z" fill="#051039"/>
<path d="M17.0291 58.0666C21.8087 58.0666 25.6832 54.192 25.6832 49.4125C25.6832 44.6329 21.8087 40.7584 17.0291 40.7584C12.2496 40.7584 8.375 44.6329 8.375 49.4125C8.375 54.192 12.2496 58.0666 17.0291 58.0666Z" fill="#415A6B"/>
<path d="M17.029 53.6C19.3417 53.6 21.2165 51.7252 21.2165 49.4125C21.2165 47.0998 19.3417 45.225 17.029 45.225C14.7164 45.225 12.8416 47.0998 12.8416 49.4125C12.8416 51.7252 14.7164 53.6 17.029 53.6Z" fill="white"/>
<path d="M52.2042 58.0666C56.9837 58.0666 60.8583 54.192 60.8583 49.4125C60.8583 44.6329 56.9837 40.7584 52.2042 40.7584C47.4246 40.7584 43.55 44.6329 43.55 49.4125C43.55 54.192 47.4246 58.0666 52.2042 58.0666Z" fill="#415A6B"/>
<path d="M52.2041 53.6C54.5168 53.6 56.3916 51.7252 56.3916 49.4125C56.3916 47.0998 54.5168 45.225 52.2041 45.225C49.8914 45.225 48.0166 47.0998 48.0166 49.4125C48.0166 51.7252 49.8914 53.6 52.2041 53.6Z" fill="white"/>
<path d="M8.79402 14.7959C7.11902 14.7959 5.72314 16.1917 5.72314 17.8667V35.873C5.72314 37.548 7.11902 38.9439 8.79402 38.9439C10.469 38.9439 11.8649 37.548 11.8649 35.873V17.8667C11.7253 16.1916 10.469 14.7959 8.79402 14.7959Z" fill="#F7B64C"/>
<path d="M20.1002 14.7959C18.4252 14.7959 17.0293 16.1917 17.0293 17.8667V35.873C17.0293 37.548 18.4252 38.9439 20.1002 38.9439C21.7752 38.9439 23.1711 37.548 23.1711 35.873V17.8667C23.0314 16.1916 21.7752 14.7959 20.1002 14.7959Z" fill="#F7B64C"/>
<path d="M31.4066 14.7959C29.7316 14.7959 28.3357 16.1917 28.3357 17.8667V35.873C28.3357 37.548 29.7316 38.9439 31.4066 38.9439C33.0816 38.9439 34.4774 37.548 34.4774 35.873V17.8667C34.3378 16.1916 33.0816 14.7959 31.4066 14.7959Z" fill="#F7B64C"/>
</svg>
